REM DIRINDEX 1\2\4\8,1\2\4\9,1\2\4\10,1\2\5\11,1\2\5\12,1\2\5\13,1\2\5\14,1\2\5\15,1\3\6\16,1\3\6\17,1\3\6\18,1\3\7\19,1\3\7\20,1\3\7\21,1\3\7\22,1\3\7\23
REM DIRNAME "folder01","folder02","folder03","folder04","folder05","folder06","folder07","folder08","folder09","folder10","folder11","folder12","folder13","folder14","folder15","folder16","folder17","folder18","folder19","folder20","folder21","folder22","folder23"
TITLE ""
FILE "LR_black_phrase_E_B06.mp3" MP3
  TRACK 01 AUDIO
    TITLE "0:"
    INDEX 01 00:00:00
  TRACK 02 AUDIO
    TITLE "16:cjc171_09351"
    INDEX 01 00:00:14
  TRACK 03 AUDIO
    TITLE "0:"
    INDEX 01 00:01:37
  TRACK 04 AUDIO
    TITLE "17:cjc171_09352"
    INDEX 01 00:01:67
  TRACK 05 AUDIO
    TITLE "0:"
    INDEX 01 00:04:08
  TRACK 06 AUDIO
    TITLE "18:cjc171_09353"
    INDEX 01 00:04:63
  TRACK 07 AUDIO
    TITLE "0:"
    INDEX 01 00:07:03
  TRACK 08 AUDIO
    TITLE "16:cjc171_09354"
    INDEX 01 00:08:08
  TRACK 09 AUDIO
    TITLE "0:"
    INDEX 01 00:09:15
  TRACK 10 AUDIO
    TITLE "17:cjc171_09355"
    INDEX 01 00:09:45
  TRACK 11 AUDIO
    TITLE "0:"
    INDEX 01 00:11:41
  TRACK 12 AUDIO
    TITLE "18:cjc171_09356"
    INDEX 01 00:12:23
  TRACK 13 AUDIO
    TITLE "0:"
    INDEX 01 00:14:18
  TRACK 14 AUDIO
    TITLE "16:cjc171_09357"
    INDEX 01 00:15:27
  TRACK 15 AUDIO
    TITLE "0:"
    INDEX 01 00:16:49
  TRACK 16 AUDIO
    TITLE "17:cjc171_09358"
    INDEX 01 00:17:05
  TRACK 17 AUDIO
    TITLE "0:"
    INDEX 01 00:19:31
  TRACK 18 AUDIO
    TITLE "18:cjc171_09359"
    INDEX 01 00:20:09
  TRACK 19 AUDIO
    TITLE "0:"
    INDEX 01 00:22:35
  TRACK 20 AUDIO
    TITLE "16:cjc171_09360"
    INDEX 01 00:23:35
  TRACK 21 AUDIO
    TITLE "0:"
    INDEX 01 00:24:48
  TRACK 22 AUDIO
    TITLE "17:cjc171_09361"
    INDEX 01 00:24:70
  TRACK 23 AUDIO
    TITLE "0:"
    INDEX 01 00:27:39
  TRACK 24 AUDIO
    TITLE "18:cjc171_09362"
    INDEX 01 00:28:07
  TRACK 25 AUDIO
    TITLE "0:"
    INDEX 01 00:30:51
  TRACK 26 AUDIO
    TITLE "16:cjc171_09363"
    INDEX 01 00:31:46
  TRACK 27 AUDIO
    TITLE "0:"
    INDEX 01 00:32:61
  TRACK 28 AUDIO
    TITLE "17:cjc171_09364"
    INDEX 01 00:33:10
  TRACK 29 AUDIO
    TITLE "0:"
    INDEX 01 00:34:64
  TRACK 30 AUDIO
    TITLE "18:cjc171_09365"
    INDEX 01 00:35:32
  TRACK 31 AUDIO
    TITLE "0:"
    INDEX 01 00:37:13
  TRACK 32 AUDIO
    TITLE "16:cjc171_09366"
    INDEX 01 00:38:07
  TRACK 33 AUDIO
    TITLE "0:"
    INDEX 01 00:39:22
  TRACK 34 AUDIO
    TITLE "17:cjc171_09367"
    INDEX 01 00:39:42
  TRACK 35 AUDIO
    TITLE "0:"
    INDEX 01 00:41:54
  TRACK 36 AUDIO
    TITLE "18:cjc171_09368"
    INDEX 01 00:42:26
  TRACK 37 AUDIO
    TITLE "0:"
    INDEX 01 00:44:39
  TRACK 38 AUDIO
    TITLE "16:cjc171_09369"
    INDEX 01 00:45:36
  TRACK 39 AUDIO
    TITLE "0:"
    INDEX 01 00:46:48
  TRACK 40 AUDIO
    TITLE "17:cjc171_09370"
    INDEX 01 00:47:02
  TRACK 41 AUDIO
    TITLE "0:"
    INDEX 01 00:49:05
  TRACK 42 AUDIO
    TITLE "18:cjc171_09371"
    INDEX 01 00:49:60
  TRACK 43 AUDIO
    TITLE "0:"
    INDEX 01 00:51:63
  TRACK 44 AUDIO
    TITLE "16:cjc171_09372"
    INDEX 01 00:52:68
  TRACK 45 AUDIO
    TITLE "0:"
    INDEX 01 00:54:20
  TRACK 46 AUDIO
    TITLE "17:cjc171_09373"
    INDEX 01 00:54:49
  TRACK 47 AUDIO
    TITLE "0:"
    INDEX 01 00:57:22
  TRACK 48 AUDIO
    TITLE "18:cjc171_09374"
    INDEX 01 00:57:75
  TRACK 49 AUDIO
    TITLE "0:"
    INDEX 01 01:00:46
  TRACK 50 AUDIO
    TITLE "16:cjc171_09375"
    INDEX 01 01:01:53
  TRACK 51 AUDIO
    TITLE "0:"
    INDEX 01 01:03:13
  TRACK 52 AUDIO
    TITLE "17:cjc171_09376"
    INDEX 01 01:03:42
  TRACK 53 AUDIO
    TITLE "0:"
    INDEX 01 01:06:46
  TRACK 54 AUDIO
    TITLE "18:cjc171_09377"
    INDEX 01 01:07:24
  TRACK 55 AUDIO
    TITLE "0:"
    INDEX 01 01:10:31
  TRACK 56 AUDIO
    TITLE "16:cjc171_09378"
    INDEX 01 01:11:28
  TRACK 57 AUDIO
    TITLE "0:"
    INDEX 01 01:12:25
  TRACK 58 AUDIO
    TITLE "17:cjc171_09379"
    INDEX 01 01:12:53
  TRACK 59 AUDIO
    TITLE "0:"
    INDEX 01 01:14:62
  TRACK 60 AUDIO
    TITLE "18:cjc171_09380"
    INDEX 01 01:15:32
  TRACK 61 AUDIO
    TITLE "0:"
    INDEX 01 01:17:42
  TRACK 62 AUDIO
    TITLE "16:cjc171_09381"
    INDEX 01 01:18:38
  TRACK 63 AUDIO
    TITLE "0:"
    INDEX 01 01:19:63
  TRACK 64 AUDIO
    TITLE "17:cjc171_09382"
    INDEX 01 01:20:07
  TRACK 65 AUDIO
    TITLE "0:"
    INDEX 01 01:22:36
  TRACK 66 AUDIO
    TITLE "18:cjc171_09383"
    INDEX 01 01:23:10
  TRACK 67 AUDIO
    TITLE "0:"
    INDEX 01 01:25:36
  TRACK 68 AUDIO
    TITLE "16:cjc171_09384"
    INDEX 01 01:26:31
  TRACK 69 AUDIO
    TITLE "0:"
    INDEX 01 01:27:33
  TRACK 70 AUDIO
    TITLE "17:cjc171_09385"
    INDEX 01 01:27:54
  TRACK 71 AUDIO
    TITLE "0:"
    INDEX 01 01:29:36
  TRACK 72 AUDIO
    TITLE "18:cjc171_09386"
    INDEX 01 01:30:10
  TRACK 73 AUDIO
    TITLE "0:"
    INDEX 01 01:31:66
  TRACK 74 AUDIO
    TITLE "16:cjc171_09387"
    INDEX 01 01:32:67
  TRACK 75 AUDIO
    TITLE "0:"
    INDEX 01 01:34:13
  TRACK 76 AUDIO
    TITLE "17:cjc171_09388"
    INDEX 01 01:34:45
  TRACK 77 AUDIO
    TITLE "0:"
    INDEX 01 01:36:40
  TRACK 78 AUDIO
    TITLE "18:cjc171_09389"
    INDEX 01 01:37:22
  TRACK 79 AUDIO
    TITLE "0:"
    INDEX 01 01:39:15
  TRACK 80 AUDIO
    TITLE "16:cjc171_09390"
    INDEX 01 01:40:20
  TRACK 81 AUDIO
    TITLE "0:"
    INDEX 01 01:41:33
  TRACK 82 AUDIO
    TITLE "17:cjc171_09391"
    INDEX 01 01:41:62
  TRACK 83 AUDIO
    TITLE "0:"
    INDEX 01 01:44:02
  TRACK 84 AUDIO
    TITLE "18:cjc171_09392"
    INDEX 01 01:44:59
  TRACK 85 AUDIO
    TITLE "0:"
    INDEX 01 01:46:71
  TRACK 86 AUDIO
    TITLE "16:cjc171_09393"
    INDEX 01 01:48:02
  TRACK 87 AUDIO
    TITLE "0:"
    INDEX 01 01:49:21
  TRACK 88 AUDIO
    TITLE "17:cjc171_09394"
    INDEX 01 01:49:50
  TRACK 89 AUDIO
    TITLE "0:"
    INDEX 01 01:51:39
  TRACK 90 AUDIO
    TITLE "18:cjc171_09395"
    INDEX 01 01:52:17
  TRACK 91 AUDIO
    TITLE "0:"
    INDEX 01 01:54:06
  TRACK 92 AUDIO
    TITLE "16:cjc171_09396"
    INDEX 01 01:55:04
  TRACK 93 AUDIO
    TITLE "0:"
    INDEX 01 01:56:31
  TRACK 94 AUDIO
    TITLE "17:cjc171_09397"
    INDEX 01 01:56:54
  TRACK 95 AUDIO
    TITLE "0:"
    INDEX 01 01:58:73
  TRACK 96 AUDIO
    TITLE "18:cjc171_09398"
    INDEX 01 01:59:51
  TRACK 97 AUDIO
    TITLE "0:"
    INDEX 01 02:01:69
  TRACK 98 AUDIO
    TITLE "16:cjc171_09399"
    INDEX 01 02:02:70
  TRACK 99 AUDIO
    TITLE "0:"
    INDEX 01 02:03:68
  TRACK 100 AUDIO
    TITLE "17:cjc171_09400"
    INDEX 01 02:04:20
  TRACK 101 AUDIO
    TITLE "0:"
    INDEX 01 02:06:09
  TRACK 102 AUDIO
    TITLE "18:cjc171_09401"
    INDEX 01 02:06:62
  TRACK 103 AUDIO
    TITLE "0:"
    INDEX 01 02:08:49
  TRACK 104 AUDIO
    TITLE "16:cjc171_09402"
    INDEX 01 02:09:47
  TRACK 105 AUDIO
    TITLE "0:"
    INDEX 01 02:10:60
  TRACK 106 AUDIO
    TITLE "17:cjc171_09403"
    INDEX 01 02:11:05
  TRACK 107 AUDIO
    TITLE "0:"
    INDEX 01 02:13:45
  TRACK 108 AUDIO
    TITLE "18:cjc171_09404"
    INDEX 01 02:14:15
  TRACK 109 AUDIO
    TITLE "0:"
    INDEX 01 02:16:55
  TRACK 110 AUDIO
    TITLE "16:cjc171_09405"
    INDEX 01 02:17:54
  TRACK 111 AUDIO
    TITLE "0:"
    INDEX 01 02:18:69
  TRACK 112 AUDIO
    TITLE "17:cjc171_09406"
    INDEX 01 02:19:22
  TRACK 113 AUDIO
    TITLE "0:"
    INDEX 01 02:21:34
  TRACK 114 AUDIO
    TITLE "18:cjc171_09407"
    INDEX 01 02:22:12
  TRACK 115 AUDIO
    TITLE "0:"
    INDEX 01 02:24:25
  TRACK 116 AUDIO
    TITLE "16:cjc171_09408"
    INDEX 01 02:25:28
  TRACK 117 AUDIO
    TITLE "0:"
    INDEX 01 02:26:49
  TRACK 118 AUDIO
    TITLE "17:cjc171_09409"
    INDEX 01 02:27:06
  TRACK 119 AUDIO
    TITLE "0:"
    INDEX 01 02:29:03
  TRACK 120 AUDIO
    TITLE "18:cjc171_09410"
    INDEX 01 02:29:57
  TRACK 121 AUDIO
    TITLE "0:"
    INDEX 01 02:31:58
  TRACK 122 AUDIO
    TITLE "16:cjc171_09411"
    INDEX 01 02:32:62
  TRACK 123 AUDIO
    TITLE "0:"
    INDEX 01 02:33:75
  TRACK 124 AUDIO
    TITLE "17:cjc171_09412"
    INDEX 01 02:34:29
  TRACK 125 AUDIO
    TITLE "0:"
    INDEX 01 02:36:20
  TRACK 126 AUDIO
    TITLE "18:cjc171_09413"
    INDEX 01 02:36:75
  TRACK 127 AUDIO
    TITLE "0:"
    INDEX 01 02:38:66
  TRACK 128 AUDIO
    TITLE "16:cjc171_09414"
    INDEX 01 02:39:66
  TRACK 129 AUDIO
    TITLE "0:"
    INDEX 01 02:41:23
  TRACK 130 AUDIO
    TITLE "17:cjc171_09415"
    INDEX 01 02:41:43
  TRACK 131 AUDIO
    TITLE "0:"
    INDEX 01 02:44:26
  TRACK 132 AUDIO
    TITLE "18:cjc171_09416"
    INDEX 01 02:44:75
  TRACK 133 AUDIO
    TITLE "0:"
    INDEX 01 02:47:52
  TRACK 134 AUDIO
    TITLE "16:cjc171_09417"
    INDEX 01 02:48:63
  TRACK 135 AUDIO
    TITLE "0:"
    INDEX 01 02:50:13
  TRACK 136 AUDIO
    TITLE "17:cjc171_09418"
    INDEX 01 02:50:38
  TRACK 137 AUDIO
    TITLE "0:"
    INDEX 01 02:53:13
  TRACK 138 AUDIO
    TITLE "18:cjc171_09419"
    INDEX 01 02:53:60
  TRACK 139 AUDIO
    TITLE "0:"
    INDEX 01 02:56:37
  TRACK 140 AUDIO
    TITLE "16:cjc171_09420"
    INDEX 01 02:57:32
  TRACK 141 AUDIO
    TITLE "0:"
    INDEX 01 02:58:47
  TRACK 142 AUDIO
    TITLE "17:cjc171_09421"
    INDEX 01 02:59:02
  TRACK 143 AUDIO
    TITLE "0:"
    INDEX 01 03:01:18
  TRACK 144 AUDIO
    TITLE "18:cjc171_09422"
    INDEX 01 03:01:71
  TRACK 145 AUDIO
    TITLE "0:"
    INDEX 01 03:04:15
  TRACK 146 AUDIO
    TITLE "16:cjc171_09423"
    INDEX 01 03:05:18
  TRACK 147 AUDIO
    TITLE "0:"
    INDEX 01 03:06:35
  TRACK 148 AUDIO
    TITLE "17:cjc171_09424"
    INDEX 01 03:06:66
  TRACK 149 AUDIO
    TITLE "0:"
    INDEX 01 03:09:30
  TRACK 150 AUDIO
    TITLE "18:cjc171_09425"
    INDEX 01 03:10:09
  TRACK 151 AUDIO
    TITLE "0:"
    INDEX 01 03:12:49
  TRACK 152 AUDIO
    TITLE "16:cjc171_09426"
    INDEX 01 03:13:55
  TRACK 153 AUDIO
    TITLE "0:"
    INDEX 01 03:14:62
  TRACK 154 AUDIO
    TITLE "17:cjc171_09427"
    INDEX 01 03:15:16
  TRACK 155 AUDIO
    TITLE "0:"
    INDEX 01 03:17:10
  TRACK 156 AUDIO
    TITLE "18:cjc171_09428"
    INDEX 01 03:17:62
  TRACK 157 AUDIO
    TITLE "0:"
    INDEX 01 03:19:53
  TRACK 158 AUDIO
    TITLE "16:cjc171_09429"
    INDEX 01 03:20:57
  TRACK 159 AUDIO
    TITLE "0:"
    INDEX 01 03:22:07
  TRACK 160 AUDIO
    TITLE "17:cjc171_09430"
    INDEX 01 03:22:34
  TRACK 161 AUDIO
    TITLE "0:"
    INDEX 01 03:25:21
  TRACK 162 AUDIO
    TITLE "18:cjc171_09431"
    INDEX 01 03:26:03
  TRACK 163 AUDIO
    TITLE "0:"
    INDEX 01 03:28:64
  TRACK 164 AUDIO
    TITLE "16:cjc171_09432"
    INDEX 01 03:29:62
  TRACK 165 AUDIO
    TITLE "0:"
    INDEX 01 03:30:73
  TRACK 166 AUDIO
    TITLE "17:cjc171_09433"
    INDEX 01 03:31:23
  TRACK 167 AUDIO
    TITLE "0:"
    INDEX 01 03:33:69
  TRACK 168 AUDIO
    TITLE "18:cjc171_09434"
    INDEX 01 03:34:45
  TRACK 169 AUDIO
    TITLE "0:"
    INDEX 01 03:37:18
  TRACK 170 AUDIO
    TITLE "16:cjc171_09435"
    INDEX 01 03:38:18
  TRACK 171 AUDIO
    TITLE "0:"
    INDEX 01 03:39:21
  TRACK 172 AUDIO
    TITLE "17:cjc171_09436"
    INDEX 01 03:39:46
  TRACK 173 AUDIO
    TITLE "0:"
    INDEX 01 03:41:28
  TRACK 174 AUDIO
    TITLE "18:cjc171_09437"
    INDEX 01 03:42:06
  TRACK 175 AUDIO
    TITLE "0:"
    INDEX 01 03:43:62
  TRACK 176 AUDIO
    TITLE "16:cjc171_09438"
    INDEX 01 03:44:65
  TRACK 177 AUDIO
    TITLE "0:"
    INDEX 01 03:46:03
  TRACK 178 AUDIO
    TITLE "17:cjc171_09439"
    INDEX 01 03:46:25
  TRACK 179 AUDIO
    TITLE "0:"
    INDEX 01 03:48:49
  TRACK 180 AUDIO
    TITLE "18:cjc171_09440"
    INDEX 01 03:49:19
  TRACK 181 AUDIO
    TITLE "0:"
    INDEX 01 03:51:46
